<?xml version="1.0" encoding="utf-8"?>
<!-- Generator: Adobe Illustrator 16.0.0, SVG Export Plug-In . SVG Version: 6.00 Build 0)  -->
<!DOCTYPE svg PUBLIC "-//W3C//DTD SVG 1.1//EN" "http://www.w3.org/Graphics/SVG/1.1/DTD/svg11.dtd">
<svg version="1.1" id="Capa_1" xmlns="http://www.w3.org/2000/svg" xmlns:xlink="http://www.w3.org/1999/xlink" x="0px" y="0px"
	 width="26px" height="26px" viewBox="0 0 26 26" enable-background="new 0 0 26 26" xml:space="preserve">
<path fill="#535252" d="M15.075,2.94c-4.124,0-7.468,3.343-7.468,7.467c0,4.123,3.344,7.467,7.468,7.467
	c4.123,0,7.467-3.344,7.467-7.467C22.542,6.283,19.198,2.94,15.075,2.94z M15.076,15.374c-2.744,0-4.968-2.225-4.968-4.967
	c0-2.744,2.224-4.968,4.968-4.968c2.743,0,4.967,2.224,4.967,4.968C20.043,13.149,17.819,15.374,15.076,15.374z"/>
<path fill="#535252" d="M11.009,14.254c0.666,0.592,0.836,1.485,0.382,1.996l-5.756,6.468c-0.454,0.51-1.362,0.444-2.027-0.148l0,0
	c-0.665-0.591-0.835-1.485-0.381-1.995l5.756-6.468C9.437,13.596,10.345,13.662,11.009,14.254L11.009,14.254z"/>
</svg>
